<svg width="59.389160" height="58.784668" viewBox="0 0 59.3892 58.7847" fill="none" xmlns="http://www.w3.org/2000/svg" xmlns:xlink="http://www.w3.org/1999/xlink">
	<desc>
			Created with Pixso.
	</desc>
	<defs/>
	<path id="Star 2" d="M25.46 15.6L13.47 4.76L18.35 20.17L2.4 17.53L14.84 27.86L0 34.26L16.04 36.23L7.02 49.64L21.58 42.61L21.24 58.78L29.69 45L38.14 58.78L37.8 42.61L52.36 49.64L43.33 36.23L59.38 34.26L44.54 27.86L56.98 17.53L41.03 20.17L45.91 4.76L33.92 15.6L29.69 0L25.46 15.6ZM29.69 11.47L27.08 21.11L19.68 14.41L22.69 23.93L12.84 22.3L20.52 28.68L11.36 32.63L21.27 33.84L15.69 42.12L24.68 37.79L24.47 47.77L29.69 39.26L34.91 47.77L34.7 37.79L43.69 42.12L38.11 33.84L48.02 32.63L38.86 28.68L46.54 22.3L36.69 23.93L39.7 14.41L32.3 21.11L29.69 11.47Z" fill="#EEDB6D" fill-opacity="1.000000" fill-rule="evenodd"/>
</svg>
